<svg width="78" height="23" viewBox="0 0 78 23" fill="none" xmlns="http://www.w3.org/2000/svg">
<path d="M11.3197 4.88574L17.4556 21.7887H18.8035V22.3157L10.8037 22.3019V21.7749H12.4956L10.8601 17.2387H4.96392L3.179 21.7693H5.81832V22.2936H0.567871V21.7666H2.58967L7.78371 8.6769L6.71221 5.85698L11.3197 4.88574ZM8.04314 9.4136L5.1754 16.709H10.6684L8.04314 9.4136Z" fill="white"/>
<path d="M27.4765 21.0963C26.8562 21.924 25.5619 22.5945 23.8644 22.5918C21.3886 22.5918 19.8293 21.2397 19.8321 18.5799L19.849 10.7244H18.0161V10.225H19.7926C21.2025 8.67155 22.869 7.04086 24.3804 5.64746H24.5129V10.2333H27.3947V10.7327H24.5129L24.496 19.6146C24.496 20.7486 25.0036 21.3556 25.92 21.3556C26.4301 21.363 26.923 21.1748 27.2932 20.8314L27.4765 21.0963Z" fill="white"/>
<path d="M27.9453 16.2731C27.9453 12.5564 30.8131 9.95451 34.7438 9.96279C38.6746 9.97107 41.5509 12.5813 41.5452 16.309C41.5452 20.1305 38.6775 22.6551 34.7213 22.6551C30.7651 22.6551 27.9369 20.0946 27.9453 16.2731ZM36.6162 16.2897C36.6162 11.8887 36.1425 10.3849 34.7438 10.3849C33.3452 10.3849 32.8828 11.8832 32.8744 16.2814C32.8744 20.7375 33.3481 22.2109 34.6677 22.2164C36.0664 22.2164 36.6077 20.6906 36.6162 16.2897Z" fill="white"/>
<path d="M63.9158 21.874H65.2862V22.401H58.2367V21.8767H59.2603L59.2772 13.0224C59.2772 11.996 58.7133 11.3366 57.825 11.3338C57.34 11.3338 56.9368 11.5159 56.3418 11.9629L56.3249 21.8712H57.3739V22.3982H50.6402V21.8712H51.6638V12.9921C51.6638 11.9629 51.0998 11.3366 50.2144 11.3366C49.9363 11.3438 49.6629 11.4086 49.4121 11.5265C49.1614 11.6444 48.939 11.8129 48.7594 12.0208L48.7397 21.8767H49.7915V22.4038H42.7109V21.8767H44.0842L44.1039 10.8068H42.7307V10.3074H48.7651V11.4138C49.8056 10.4856 51.1582 9.96327 52.5661 9.94592C54.1001 9.94592 55.2308 10.5557 55.9019 11.7173C57.4105 10.4812 58.7866 9.95696 60.1598 9.95972C62.5284 9.95972 63.9271 11.4414 63.9214 13.9992L63.9158 21.874Z" fill="white"/>
<path d="M77.8781 15.4669H70.9302C71.1388 18.7779 72.4021 20.1327 74.9343 20.1382C75.9515 20.1616 76.9506 19.8721 77.7907 19.3105L77.8697 19.3877C76.9786 21.3385 75.1176 22.6988 72.3711 22.6988C68.7053 22.6988 66.2352 20.29 66.2437 16.5733C66.2437 12.4345 69.2975 10.0699 72.6361 10.0781C75.7886 10.0781 77.8838 12.2469 77.8781 14.9619V15.4669ZM73.812 14.9316C73.812 11.6647 73.4708 10.4782 72.5008 10.4782C71.5308 10.4782 70.9104 11.6343 70.9048 14.4267V14.9261L73.812 14.9316Z" fill="white"/>
<path d="M33.986 7.49853C33.5585 7.51998 33.1365 7.39726 32.7904 7.15087C32.6372 7.0197 32.5175 6.85537 32.4406 6.67096C32.3638 6.48655 32.3319 6.28714 32.3477 6.08858C32.3405 5.84891 32.399 5.61172 32.5169 5.40154C32.625 5.21279 32.7892 5.06072 32.9878 4.96558C33.1849 4.86604 33.3944 4.79184 33.611 4.74484C33.8439 4.69841 34.081 4.67529 34.3187 4.67586C34.7541 4.66904 35.1884 4.71915 35.6102 4.82486V3.96399C35.6261 3.81863 35.6063 3.67165 35.5523 3.53532C35.4984 3.399 35.4119 3.27729 35.3 3.18037C35.0409 3.01285 34.733 2.93246 34.4231 2.95136C33.8858 2.92933 33.359 3.10117 32.9427 3.43422H32.6607V2.97895C33.2179 2.69995 33.8367 2.55969 34.4625 2.57058C34.9022 2.54328 35.3397 2.6503 35.7145 2.87686C35.869 3.00181 35.9897 3.16208 36.066 3.34349C36.1422 3.52491 36.1716 3.72191 36.1516 3.91708V6.72319C36.1516 6.99912 36.2813 7.13156 36.5407 7.13156H36.6253C36.6802 7.13325 36.735 7.12386 36.786 7.10397V7.41024L36.6253 7.46542C36.5385 7.48549 36.4494 7.49476 36.3603 7.49301C35.8527 7.49301 35.6017 7.2778 35.6017 6.8446V6.74251C35.4124 6.98426 35.1673 7.17877 34.8865 7.31016C34.6057 7.44155 34.2971 7.5061 33.986 7.49853ZM34.0621 7.12604C34.3654 7.12287 34.6636 7.04976 34.9326 6.91264C35.2016 6.77553 35.4337 6.57828 35.6102 6.33691V5.167C35.2193 5.07121 34.8175 5.02485 34.4146 5.02904C33.3901 5.02904 32.8778 5.38222 32.8778 6.08858C32.8778 6.79493 33.2697 7.14076 34.0537 7.12604H34.0621Z" fill="white"/>
<path d="M40.1881 7.48763C39.8612 7.50963 39.5332 7.46235 39.2266 7.34902C38.92 7.23569 38.6421 7.05898 38.4116 6.83094C37.98 6.32562 37.7612 5.67842 37.7998 5.0209C37.7829 4.69387 37.8328 4.36682 37.9466 4.05888C38.0603 3.75094 38.2357 3.46827 38.4624 3.22741C38.6966 3.00147 38.9762 2.82548 39.2834 2.71055C39.5906 2.59562 39.9188 2.54426 40.2473 2.55968C40.7947 2.54624 41.3392 2.64005 41.849 2.83561V3.72683H41.4711C41.4711 3.6275 41.4485 3.55576 41.4429 3.50885C41.4373 3.46195 41.4204 3.404 41.4006 3.33226C41.3824 3.26861 41.3462 3.21125 41.2963 3.16671C41.2409 3.12091 41.1779 3.08453 41.1102 3.0591C40.832 2.95305 40.5343 2.90512 40.2361 2.91838C39.9708 2.9002 39.705 2.94343 39.46 3.04458C39.215 3.14574 38.9979 3.30196 38.8262 3.50058C38.4949 3.94126 38.3287 4.48 38.3553 5.02642C38.3267 5.57275 38.4833 6.113 38.8008 6.56329C38.9714 6.76256 39.1887 6.91854 39.4342 7.01799C39.6797 7.11743 39.946 7.15739 40.2107 7.13445C40.8987 7.13445 41.3781 6.93027 41.6431 6.52191H41.9477V6.91095C41.4606 7.32067 40.8291 7.52765 40.1881 7.48763Z" fill="white"/>
<path d="M44.7259 7.49853C44.2984 7.52043 43.8762 7.39767 43.5303 7.15087C43.3767 7.01997 43.2564 6.85577 43.179 6.67134C43.1017 6.48691 43.0694 6.28736 43.0848 6.08857C43.0777 5.8489 43.1361 5.61172 43.254 5.40153C43.3627 5.21332 43.5268 5.06144 43.7249 4.96558C43.9232 4.86645 44.1335 4.79228 44.3509 4.74484C44.5838 4.69825 44.8209 4.67514 45.0586 4.67586C45.4931 4.66885 45.9265 4.71897 46.3473 4.82486V3.96398C46.3638 3.81884 46.3445 3.67193 46.2911 3.53558C46.2376 3.39923 46.1515 3.27742 46.0399 3.18037C45.7806 3.01322 45.4729 2.93286 45.163 2.95136C44.6256 2.92829 44.0984 3.10025 43.6826 3.43422H43.4006V2.97895C43.958 2.70059 44.5767 2.56037 45.2025 2.57058C45.6421 2.54328 46.0796 2.6503 46.4544 2.87686C46.6093 3.0015 46.7303 3.16171 46.8066 3.34321C46.8829 3.52472 46.912 3.72186 46.8915 3.91708V6.72319C46.8915 6.99911 47.0212 7.13155 47.2806 7.13155H47.368C47.423 7.13325 47.4777 7.12386 47.5288 7.10396V7.41024L47.368 7.46542C47.2757 7.48663 47.1809 7.49591 47.0861 7.49301C46.5813 7.49301 46.3276 7.27779 46.3276 6.8446V6.74251C46.1396 6.98235 45.8968 7.1757 45.6186 7.30701C45.3405 7.43831 45.0347 7.50391 44.7259 7.49853ZM44.802 7.12604C45.105 7.12309 45.4029 7.05006 45.6714 6.91291C45.94 6.77576 46.1716 6.57838 46.3473 6.33691V5.167C45.9564 5.07106 45.5546 5.02469 45.1517 5.02904C44.129 5.02904 43.6168 5.38222 43.6149 6.08857C43.613 6.79493 44.0087 7.14075 44.802 7.12604Z" fill="white"/>
<path d="M50.684 7.48754C49.9677 7.48754 49.4433 7.26681 49.1077 6.81982C48.7677 6.28386 48.5936 5.66297 48.6066 5.03226C48.6196 4.40155 48.8192 3.78804 49.181 3.26595C49.3796 3.02785 49.6334 2.83955 49.9213 2.7167C50.2091 2.59385 50.5228 2.53999 50.8362 2.5596C51.1504 2.54459 51.4639 2.59963 51.7531 2.72056C52.0422 2.8415 52.2996 3.02516 52.5056 3.25768V1.29864H51.6596V0.953735H52.9116C52.999 0.953735 53.0441 1.01168 53.0441 1.12205V6.83913C53.0445 6.87397 53.0522 6.90837 53.0668 6.94018C53.0813 6.97198 53.1024 7.00051 53.1287 7.02399C53.1512 7.05231 53.1798 7.0754 53.2124 7.09162C53.2451 7.10784 53.2811 7.11678 53.3177 7.11781H53.7463V7.45167H52.6353C52.5479 7.45167 52.4999 7.34958 52.4943 7.1454V6.55217C52.2977 6.84493 52.0287 7.08423 51.7121 7.24778C51.3956 7.41134 51.0419 7.49382 50.684 7.48754ZM50.7488 7.12609C51.0993 7.12078 51.4431 7.03086 51.7495 6.86432C52.056 6.69777 52.3157 6.45975 52.5056 6.1714V3.62741C52.2989 3.41544 52.0542 3.24242 51.7837 3.11696C51.5094 3.01035 51.2158 2.95965 50.9208 2.96796C50.6651 2.94649 50.4079 2.98949 50.1739 3.09285C49.94 3.19622 49.7369 3.3565 49.5842 3.55843C49.2887 4.00615 49.1419 4.53239 49.1641 5.06496C49.1583 5.49036 49.2399 5.91257 49.4038 6.3066C49.4701 6.47975 49.5763 6.63557 49.7142 6.76192C49.8521 6.88828 50.018 6.98174 50.199 7.03503C50.3754 7.0965 50.5615 7.12732 50.7488 7.12609Z" fill="white"/>
<path d="M57.1927 7.48754C56.8637 7.50867 56.5337 7.46241 56.2239 7.35171C55.9141 7.24102 55.6314 7.06832 55.3937 6.84465C54.9482 6.35147 54.721 5.7054 54.7621 5.0484C54.736 4.39836 54.9559 3.76176 55.3796 3.26043C55.5896 3.02663 55.8508 2.84219 56.1437 2.72085C56.4366 2.59951 56.7537 2.54439 57.0715 2.5596C58.487 2.5596 59.1948 3.36161 59.1948 4.96563C59.1923 4.99316 59.1923 5.02086 59.1948 5.0484H55.3345C55.3514 6.43904 55.9868 7.13528 57.2406 7.13712C57.9418 7.13712 58.4475 6.94766 58.7577 6.56873H59.082V6.95226C58.5328 7.33593 57.8664 7.52477 57.1927 7.48754ZM55.3401 4.68694H58.6421C58.6101 3.50416 58.0856 2.91278 57.0686 2.91278C56.8404 2.90017 56.6121 2.93746 56.4004 3.02193C56.1888 3.10641 55.999 3.23595 55.8449 3.40115C55.5379 3.76449 55.3607 4.21598 55.3401 4.68694ZM56.75 2.13468L57.4239 0.953735H57.9879V1.18551L57.1419 2.13468H56.75Z" fill="white"/>
<path d="M64.6759 3.78443V7.11755H65.4345V7.45142H63.3675V7.11755H64.1261V3.92515C64.1312 3.76493 64.1112 3.60488 64.0669 3.45057C64.0086 3.30229 63.9016 3.17714 63.7628 3.09475C63.624 3.01235 63.4612 2.97737 63.2999 2.9953C62.7613 2.9953 62.172 3.27122 61.5262 3.78443V7.11755H62.3722V7.45142H60.2742V7.11755H60.6916C60.764 7.11509 60.8326 7.08545 60.8833 7.03478C60.9097 7.01078 60.9308 6.98175 60.9454 6.94949C60.9599 6.91723 60.9676 6.88241 60.9679 6.84715V3.23811C60.9636 3.16523 60.9337 3.09604 60.8833 3.04221C60.8326 2.99153 60.764 2.96189 60.6916 2.95943H60.2263V2.60625H61.3542C61.3789 2.60476 61.4034 2.60988 61.4253 2.62106C61.4471 2.63225 61.4655 2.64907 61.4783 2.66971C61.5061 2.75082 61.5222 2.83533 61.5262 2.9208V3.47264C62.2086 2.87113 62.8506 2.57038 63.4521 2.57038C64.159 2.57038 64.5603 2.87389 64.6562 3.48092C64.9429 3.21972 65.2611 2.99364 65.6036 2.80767C65.9113 2.64918 66.2542 2.56766 66.6019 2.57038C66.7544 2.57167 66.9064 2.58738 67.0558 2.61729C67.569 2.75249 67.8256 3.14154 67.8256 3.77891V6.85819C67.826 6.89345 67.8336 6.92827 67.8482 6.96053C67.8627 6.99279 67.8839 7.02181 67.9103 7.04582C67.9342 7.07156 67.9634 7.0922 67.9959 7.10644C68.0284 7.12068 68.0635 7.12822 68.0992 7.12859H68.4686V7.46246H66.4129V7.12859H67.2589V3.92515C67.264 3.76493 67.244 3.60488 67.1997 3.45057C67.1397 3.30113 67.0307 3.17537 66.8899 3.09299C66.7491 3.01061 66.5843 2.97625 66.4214 2.9953C65.9533 2.9953 65.364 3.26018 64.6759 3.78443Z" fill="white"/>
<path d="M69.4666 7.45154V7.11767H69.9291C70.0015 7.11521 70.0702 7.08557 70.1208 7.0349C70.1472 7.01089 70.1683 6.98187 70.1829 6.94961C70.1974 6.91735 70.2051 6.88253 70.2054 6.84727V3.23823C70.2011 3.16535 70.1712 3.09616 70.1208 3.04232C70.0702 2.99165 70.0015 2.96201 69.9291 2.95955H69.4187V2.60637H70.6143C70.6364 2.60515 70.6584 2.6096 70.6782 2.61928C70.698 2.62896 70.7148 2.64353 70.7271 2.66155C70.7498 2.73669 70.7593 2.81506 70.7553 2.89332V6.84727C70.7553 6.92045 70.785 6.99063 70.8379 7.04238C70.8907 7.09412 70.9625 7.12319 71.0373 7.12319H71.511V7.45706L69.4666 7.45154ZM70.6791 1.81723C70.6071 1.88279 70.5124 1.91923 70.4141 1.91923C70.3157 1.91923 70.221 1.88279 70.149 1.81723C70.1144 1.78328 70.0873 1.74275 70.0694 1.69814C70.0514 1.65352 70.043 1.60578 70.0447 1.55787C70.0447 1.462 70.0836 1.37007 70.1529 1.30228C70.2221 1.23449 70.3161 1.19641 70.4141 1.19641C70.512 1.19641 70.606 1.23449 70.6753 1.30228C70.7446 1.37007 70.7835 1.462 70.7835 1.55787C70.7851 1.60578 70.7767 1.65352 70.7588 1.69814C70.7408 1.74275 70.7137 1.78328 70.6791 1.81723Z" fill="white"/>
<path d="M74.9843 7.48767C74.6557 7.50858 74.3262 7.46221 74.017 7.35151C73.7077 7.24082 73.4254 7.06823 73.1881 6.84477C72.7426 6.3516 72.5154 5.70552 72.5565 5.04853C72.5305 4.39848 72.7503 3.76189 73.174 3.26056C73.384 3.02676 73.6452 2.84232 73.9381 2.72098C74.2311 2.59963 74.5482 2.54452 74.8659 2.55972C76.2814 2.55972 76.9892 3.36173 76.9892 4.96575C76.9867 4.99329 76.9867 5.02099 76.9892 5.04853H73.1289C73.1458 6.43917 73.7812 7.13541 75.0351 7.13725C75.7381 7.13725 76.2438 6.94778 76.5521 6.56885H76.8764V6.95238C76.3262 7.33606 75.6589 7.52486 74.9843 7.48767ZM73.1345 4.68707H76.4365C76.4065 3.50429 75.8819 2.9129 74.8631 2.9129C74.6348 2.90029 74.4066 2.93758 74.1949 3.02206C73.9832 3.10653 73.7934 3.23608 73.6393 3.40128C73.3324 3.76462 73.1551 4.21611 73.1345 4.68707Z" fill="white"/>
</svg>
