<svg width="74" height="22" viewBox="0 0 74 22" fill="none" xmlns="http://www.w3.org/2000/svg">
<path d="M10.8314 4.20703L16.6383 20.6648H17.9139V21.1779L10.3431 21.1645V20.6513H11.9442L10.3964 16.2347H4.81636L3.12714 20.646H5.62496V21.1564H0.656006V20.6433H2.56941L7.48497 7.89834L6.47092 5.15269L10.8314 4.20703ZM7.73049 8.61564L5.01651 15.7188H10.215L7.73049 8.61564Z" fill="white"/>
<path d="M26.1226 19.9905C25.5355 20.7965 24.3106 21.4493 22.7041 21.4466C20.3611 21.4466 18.8854 20.1302 18.888 17.5404L18.904 9.89184H17.1694V9.40557H18.8507C20.185 7.89305 21.7621 6.30531 23.1925 4.94861H23.3179V9.41363H26.0452V9.8999H23.3179L23.3019 18.5479C23.3019 19.652 23.7823 20.2431 24.6496 20.2431C25.1323 20.2502 25.5988 20.067 25.9492 19.7326L26.1226 19.9905Z" fill="white"/>
<path d="M26.5654 15.2944C26.5654 11.6756 29.2794 9.14223 32.9995 9.15029C36.7195 9.15835 39.4415 11.6998 39.4362 15.3293C39.4362 19.0502 36.7222 21.5084 32.9781 21.5084C29.2341 21.5084 26.5574 19.0153 26.5654 15.2944ZM34.7714 15.3105C34.7714 11.0255 34.3231 9.56133 32.9995 9.56133C31.6758 9.56133 31.2382 11.0201 31.2302 15.3025C31.2302 19.6412 31.6785 21.0758 32.9274 21.0812C34.2511 21.0812 34.7634 19.5955 34.7714 15.3105Z" fill="white"/>
<path d="M60.6063 20.7478H61.9032V21.2609H55.2317V20.7505H56.2004L56.2164 12.1294C56.2164 11.13 55.6827 10.4879 54.8421 10.4852C54.3831 10.4852 54.0015 10.6626 53.4384 11.0978L53.4224 20.7451H54.4151V21.2583H48.0425V20.7451H49.0112V12.0999C49.0112 11.0978 48.4775 10.4879 47.6395 10.4879C47.3763 10.495 47.1176 10.558 46.8803 10.6729C46.6429 10.7877 46.4324 10.9517 46.2625 11.1542L46.2438 20.7505H47.2392V21.2636H40.5383V20.7505H41.838L41.8566 9.97211H40.557V9.48585H46.2679V10.5632C47.2527 9.65936 48.5327 9.1508 49.8651 9.13391C51.3169 9.13391 52.387 9.72764 53.0221 10.8587C54.4498 9.6551 55.7521 9.14466 57.0517 9.14734C59.2933 9.14734 60.617 10.59 60.6116 13.0804L60.6063 20.7478Z" fill="white"/>
<path d="M73.8215 14.5096H67.246C67.4435 17.7335 68.639 19.0526 71.0355 19.058C71.9981 19.0807 72.9436 18.7988 73.7388 18.252L73.8135 18.3272C72.9702 20.2266 71.2089 21.5511 68.6097 21.5511C65.1405 21.5511 62.8028 19.2057 62.8108 15.5869C62.8108 11.5571 65.7009 9.25478 68.8605 9.26284C71.844 9.26284 73.8268 11.3745 73.8215 14.018V14.5096ZM69.9734 13.9885C69.9734 10.8076 69.6504 9.65239 68.7324 9.65239C67.8144 9.65239 67.2274 10.778 67.222 13.4968V13.9831L69.9734 13.9885Z" fill="white"/>
<path d="M32.2815 6.75108C31.8769 6.77196 31.4775 6.65248 31.15 6.41257C31.0051 6.28486 30.8917 6.12486 30.819 5.9453C30.7463 5.76575 30.7161 5.57159 30.731 5.37826C30.7243 5.1449 30.7796 4.91396 30.8911 4.70931C30.9934 4.52553 31.1488 4.37747 31.3368 4.28484C31.5233 4.18792 31.7216 4.11567 31.9266 4.06991C32.147 4.0247 32.3714 4.0022 32.5964 4.00275C33.0084 3.99611 33.4194 4.04489 33.8186 4.14782V3.30962C33.8337 3.16809 33.8149 3.02498 33.7638 2.89225C33.7128 2.75952 33.6309 2.64101 33.5251 2.54665C33.2798 2.38354 32.9885 2.30526 32.6951 2.32366C32.1867 2.30222 31.6881 2.46953 31.2941 2.79381H31.0272V2.35053C31.5545 2.07888 32.1402 1.94231 32.7325 1.95292C33.1486 1.92634 33.5626 2.03054 33.9173 2.25113C34.0636 2.37279 34.1778 2.52883 34.2499 2.70547C34.3221 2.88211 34.3499 3.07392 34.331 3.26395V5.99616C34.331 6.26481 34.4537 6.39377 34.6993 6.39377H34.7793C34.8313 6.39542 34.8831 6.38628 34.9314 6.3669V6.66511L34.7793 6.71884C34.6971 6.73838 34.6129 6.74741 34.5285 6.7457C34.0481 6.7457 33.8106 6.53615 33.8106 6.11437V6.01497C33.6314 6.25035 33.3995 6.43973 33.1337 6.56766C32.868 6.69559 32.576 6.75844 32.2815 6.75108ZM32.3535 6.3884C32.6405 6.38531 32.9228 6.31412 33.1773 6.18062C33.4319 6.04712 33.6516 5.85506 33.8186 5.62005V4.48095C33.4487 4.38769 33.0684 4.34254 32.6871 4.34663C31.7175 4.34663 31.2327 4.6905 31.2327 5.37826C31.2327 6.06601 31.6036 6.40272 32.3455 6.3884H32.3535Z" fill="white"/>
<path d="M38.1529 6.74046C37.8434 6.76188 37.5331 6.71585 37.2429 6.6055C36.9528 6.49516 36.6897 6.3231 36.4716 6.10106C36.0631 5.60906 35.8561 4.9789 35.8925 4.3387C35.8766 4.02028 35.9238 3.70185 36.0315 3.40202C36.1392 3.10218 36.3051 2.82696 36.5197 2.59245C36.7413 2.37245 37.0059 2.2011 37.2966 2.0892C37.5874 1.9773 37.898 1.92728 38.2089 1.9423C38.7269 1.92921 39.2423 2.02055 39.7247 2.21096V3.07871H39.3671C39.3671 2.98199 39.3457 2.91215 39.3404 2.86647C39.335 2.8208 39.319 2.76438 39.3004 2.69453C39.2831 2.63256 39.2489 2.57671 39.2016 2.53334C39.1492 2.48874 39.0896 2.45333 39.0255 2.42857C38.7622 2.32531 38.4805 2.27864 38.1982 2.29155C37.9472 2.27385 37.6956 2.31595 37.4638 2.41443C37.2319 2.51292 37.0264 2.66503 36.8639 2.85842C36.5505 3.28749 36.3931 3.81204 36.4183 4.34407C36.3912 4.87601 36.5395 5.40204 36.8399 5.84047C37.0014 6.03448 37.207 6.18636 37.4393 6.28319C37.6717 6.38001 37.9237 6.41891 38.1742 6.39658C38.8253 6.39658 39.279 6.19778 39.5299 5.80017H39.8181V6.17897C39.3571 6.5779 38.7595 6.77943 38.1529 6.74046Z" fill="white"/>
<path d="M42.4463 6.75108C42.0417 6.7724 41.6422 6.65287 41.3148 6.41257C41.1694 6.28512 41.0555 6.12524 40.9823 5.94567C40.9091 5.7661 40.8786 5.5718 40.8932 5.37826C40.8864 5.1449 40.9417 4.91396 41.0533 4.70931C41.1562 4.52606 41.3115 4.37817 41.499 4.28484C41.6866 4.18832 41.8857 4.11611 42.0914 4.06991C42.3118 4.02455 42.5362 4.00205 42.7612 4.00275C43.1723 3.99593 43.5825 4.04472 43.9808 4.14782V3.30962C43.9964 3.1683 43.9782 3.02526 43.9276 2.8925C43.8769 2.75975 43.7954 2.64114 43.6899 2.54665C43.4445 2.3839 43.1533 2.30565 42.86 2.32366C42.3513 2.30121 41.8524 2.46863 41.4589 2.79381H41.1921V2.35053C41.7196 2.07951 42.3051 1.94298 42.8973 1.95292C43.3134 1.92634 43.7274 2.03054 44.0822 2.25113C44.2288 2.37248 44.3433 2.52848 44.4154 2.7052C44.4876 2.88192 44.5152 3.07388 44.4958 3.26395V5.99616C44.4958 6.26481 44.6186 6.39377 44.8641 6.39377H44.9468C44.9988 6.39542 45.0506 6.38628 45.0989 6.3669V6.66511L44.9468 6.71884C44.8594 6.73949 44.7697 6.74852 44.6799 6.7457C44.2022 6.7457 43.9621 6.53615 43.9621 6.11437V6.01497C43.7843 6.24849 43.5544 6.43675 43.2912 6.5646C43.0279 6.69245 42.7385 6.75632 42.4463 6.75108ZM42.5184 6.3884C42.805 6.38553 43.087 6.31442 43.3412 6.18088C43.5953 6.04735 43.8145 5.85517 43.9808 5.62005V4.48095C43.6109 4.38754 43.2306 4.34239 42.8493 4.34663C41.8814 4.34663 41.3967 4.6905 41.3949 5.37826C41.3931 6.06601 41.7676 6.40272 42.5184 6.3884Z" fill="white"/>
<path d="M48.085 6.74039C47.4072 6.74039 46.9108 6.52546 46.5933 6.09024C46.2714 5.56841 46.1067 4.96387 46.1191 4.34977C46.1314 3.73567 46.3202 3.13832 46.6626 2.62998C46.8506 2.39815 47.0907 2.21481 47.3632 2.09519C47.6356 1.97558 47.9325 1.92314 48.2291 1.94223C48.5264 1.92762 48.8231 1.98121 49.0968 2.09895C49.3705 2.2167 49.614 2.39553 49.8089 2.62192V0.714479H49.0084V0.378662H50.1932C50.2759 0.378662 50.3186 0.43508 50.3186 0.542541V6.10905C50.319 6.14298 50.3263 6.17647 50.3401 6.20744C50.3538 6.2384 50.3738 6.26618 50.3987 6.28904C50.42 6.31661 50.447 6.3391 50.4779 6.35489C50.5088 6.37069 50.5429 6.37939 50.5775 6.38039H50.9831V6.70546H49.9317C49.849 6.70546 49.8036 6.60606 49.7983 6.40725V5.82965C49.6123 6.11469 49.3576 6.34769 49.058 6.50694C48.7585 6.66619 48.4237 6.7465 48.085 6.74039ZM48.1464 6.38845C48.4781 6.38328 48.8034 6.29573 49.0935 6.13357C49.3835 5.97142 49.6293 5.73967 49.8089 5.45891V2.98192C49.6134 2.77553 49.3818 2.60707 49.1258 2.48491C48.8662 2.38112 48.5884 2.33175 48.3092 2.33984C48.0671 2.31893 47.8238 2.3608 47.6023 2.46144C47.3809 2.56208 47.1888 2.71815 47.0442 2.91475C46.7645 3.35068 46.6256 3.86306 46.6466 4.38161C46.6412 4.7958 46.7183 5.20689 46.8735 5.59055C46.9362 5.75913 47.0367 5.91085 47.1672 6.03388C47.2978 6.1569 47.4548 6.24791 47.626 6.29979C47.793 6.35965 47.9691 6.38965 48.1464 6.38845Z" fill="white"/>
<path d="M54.244 6.74039C53.9326 6.76096 53.6203 6.71591 53.3272 6.60813C53.034 6.50035 52.7664 6.3322 52.5415 6.11442C52.1198 5.63424 51.9048 5.00518 51.9437 4.36548C51.9191 3.73256 52.1271 3.11273 52.5281 2.62461C52.7268 2.39696 52.974 2.21738 53.2513 2.09924C53.5285 1.98109 53.8286 1.92742 54.1293 1.94223C55.4689 1.94223 56.1387 2.72312 56.1387 4.28489C56.1364 4.3117 56.1364 4.33867 56.1387 4.36548H52.4854C52.5014 5.7195 53.1027 6.3974 54.2894 6.39919C54.953 6.39919 55.4315 6.21472 55.7251 5.84577H56.032V6.2192C55.5123 6.59277 54.8816 6.77663 54.244 6.74039ZM52.4907 4.01355H55.6157C55.5854 2.86192 55.0891 2.28611 54.1266 2.28611C53.9106 2.27383 53.6946 2.31014 53.4942 2.39239C53.2939 2.47464 53.1143 2.60077 52.9684 2.76162C52.678 3.11539 52.5102 3.55499 52.4907 4.01355ZM53.825 1.5285L54.4628 0.378662H54.9966V0.604332L54.196 1.5285H53.825Z" fill="white"/>
<path d="M61.327 3.1349V6.38024H62.0449V6.70531H60.0888V6.38024H60.8066V3.27191C60.8115 3.11591 60.7926 2.96008 60.7506 2.80983C60.6955 2.66546 60.5942 2.54361 60.4629 2.46338C60.3315 2.38316 60.1774 2.3491 60.0247 2.36655C59.515 2.36655 58.9573 2.63521 58.3462 3.1349V6.38024H59.1468V6.70531H57.1613V6.38024H57.5563C57.6248 6.37784 57.6898 6.34898 57.7377 6.29964C57.7627 6.27627 57.7827 6.24801 57.7965 6.2166C57.8102 6.18519 57.8175 6.15129 57.8178 6.11696V2.60297C57.8137 2.53201 57.7854 2.46464 57.7377 2.41222C57.6898 2.36289 57.6248 2.33402 57.5563 2.33163H57.116V1.98775H58.1834C58.2067 1.9863 58.23 1.99128 58.2506 2.00217C58.2713 2.01306 58.2887 2.02944 58.3008 2.04954C58.3271 2.12852 58.3424 2.2108 58.3462 2.29401V2.83132C58.992 2.24566 59.5995 1.95282 60.1688 1.95282C60.8378 1.95282 61.2176 2.24834 61.3083 2.83938C61.5797 2.58506 61.8808 2.36493 62.205 2.18387C62.4961 2.02955 62.8207 1.95017 63.1497 1.95282C63.294 1.95409 63.4379 1.96938 63.5793 1.9985C64.065 2.13014 64.3079 2.50894 64.3079 3.12953V6.12771C64.3082 6.16203 64.3154 6.19594 64.3292 6.22735C64.343 6.25876 64.3629 6.28701 64.3879 6.31039C64.4106 6.33546 64.4382 6.35555 64.469 6.36942C64.4997 6.38328 64.533 6.39062 64.5667 6.39098H64.9163V6.71605H62.9709V6.39098H63.7715V3.27191C63.7763 3.11591 63.7574 2.96008 63.7154 2.80983C63.6587 2.66433 63.5556 2.54188 63.4223 2.46167C63.289 2.38146 63.1331 2.348 62.9789 2.36655C62.5359 2.36655 61.9781 2.62446 61.327 3.1349Z" fill="white"/>
<path d="M65.86 6.70525V6.38018H66.2977C66.3662 6.37778 66.4312 6.34892 66.4792 6.29958C66.5042 6.27621 66.5241 6.24795 66.5379 6.21654C66.5517 6.18513 66.5589 6.15123 66.5592 6.1169V2.60291C66.5551 2.53195 66.5269 2.46458 66.4792 2.41216C66.4312 2.36282 66.3662 2.33396 66.2977 2.33157H65.8147V1.98769H66.9462C66.9671 1.9865 66.9879 1.99083 67.0066 2.00026C67.0254 2.00968 67.0413 2.02387 67.0529 2.04142C67.0744 2.11458 67.0835 2.19089 67.0796 2.26709V6.1169C67.0796 6.18815 67.1077 6.25648 67.1578 6.30686C67.2078 6.35725 67.2757 6.38555 67.3465 6.38555H67.7948V6.71062L65.86 6.70525ZM67.0076 1.21934C66.9394 1.28317 66.8498 1.31865 66.7567 1.31865C66.6636 1.31865 66.574 1.28317 66.5059 1.21934C66.4731 1.18628 66.4475 1.14682 66.4305 1.10338C66.4135 1.05994 66.4055 1.01346 66.4071 0.966804C66.4071 0.873465 66.4439 0.783949 66.5095 0.717948C66.5751 0.651947 66.664 0.614868 66.7567 0.614868C66.8494 0.614868 66.9383 0.651947 67.0039 0.717948C67.0695 0.783949 67.1063 0.873465 67.1063 0.966804C67.1079 1.01346 67.0999 1.05994 67.0829 1.10338C67.066 1.14682 67.0403 1.18628 67.0076 1.21934Z" fill="white"/>
<path d="M71.0827 6.74038C70.7717 6.76074 70.4599 6.71559 70.1672 6.60781C69.8745 6.50003 69.6073 6.33199 69.3828 6.11442C68.9611 5.63423 68.7461 5.00517 68.785 4.36548C68.7604 3.73256 68.9684 3.11273 69.3694 2.6246C69.5681 2.39696 69.8153 2.21738 70.0926 2.09923C70.3698 1.98109 70.6699 1.92742 70.9706 1.94223C72.3102 1.94223 72.98 2.72311 72.98 4.28489C72.9777 4.3117 72.9777 4.33867 72.98 4.36548H69.3267C69.3427 5.71949 69.944 6.3974 71.1307 6.39919C71.7961 6.39919 72.2746 6.21472 72.5664 5.84576H72.8733V6.21919C72.3526 6.59276 71.721 6.77659 71.0827 6.74038ZM69.332 4.01354H72.457C72.4285 2.86191 71.9322 2.2861 70.9679 2.2861C70.7519 2.27383 70.5359 2.31013 70.3356 2.39238C70.1352 2.47463 69.9556 2.60077 69.8097 2.76162C69.5193 3.11538 69.3515 3.55499 69.332 4.01354Z" fill="white"/>
</svg>
