<svg width="134" height="41" viewBox="0 0 134 41" fill="none" xmlns="http://www.w3.org/2000/svg">
<path d="M18.5493 7.33435L29.135 38.8636H31.4604V39.8466L17.6591 39.8209V38.8378H20.578L17.7564 30.3765H7.58422L4.50487 38.8275H9.05825V39.8054H0.00012207V38.8224H3.48816L12.449 14.406L10.6004 9.14602L18.5493 7.33435ZM12.8965 15.7802L7.94908 29.3883H17.4256L12.8965 15.7802Z" fill="white"/>
<path d="M46.4235 37.5721C45.3533 39.1161 43.1204 40.3668 40.1918 40.3616C35.9206 40.3616 33.2304 37.8397 33.2353 32.8782L33.2644 18.2253H30.1024V17.2938H33.1672C35.5995 14.3961 38.4745 11.3544 41.082 8.75525H41.3107V17.3092H46.2825V18.2408H41.3107L41.2815 34.8083C41.2815 36.9236 42.1572 38.0559 43.7382 38.0559C44.6183 38.0696 45.4686 37.7187 46.1073 37.078L46.4235 37.5721Z" fill="white"/>
<path d="M47.2316 28.5754C47.2316 21.6427 52.179 16.7893 58.9605 16.8047C65.7419 16.8202 70.704 21.689 70.6942 28.6423C70.6942 35.7706 65.7468 40.4799 58.9216 40.4799C52.0963 40.4799 47.217 35.7037 47.2316 28.5754ZM62.1906 28.6063C62.1906 20.3972 61.3734 17.5922 58.9605 17.5922C56.5476 17.5922 55.7498 20.3869 55.7352 28.5909C55.7352 36.9029 56.5525 39.6513 58.8292 39.6616C61.2421 39.6616 62.1761 36.8154 62.1906 28.6063Z" fill="white"/>
<path d="M109.287 39.0228H111.651V40.0058H99.4895V39.0279H101.255L101.285 22.5119C101.285 20.5973 100.312 19.3672 98.7792 19.362C97.9425 19.362 97.2468 19.7017 96.2204 20.5355L96.1912 39.0176H98.0008V40.0006H86.3839V39.0176H88.1497V22.4552C88.1497 20.5355 87.1768 19.3672 85.6493 19.3672C85.1695 19.3808 84.6978 19.5015 84.2652 19.7215C83.8326 19.9414 83.4489 20.2557 83.1391 20.6436L83.105 39.0279H84.9196V40.0109H72.7042V39.0279H75.0734L75.1074 18.379H72.7383V17.4474H83.1488V19.5113C84.9441 17.7798 87.2774 16.8055 89.7065 16.7732C92.3529 16.7732 94.3036 17.9106 95.4614 20.0774C98.0641 17.7717 100.438 16.7938 102.807 16.7989C106.894 16.7989 109.306 19.5628 109.297 24.3338L109.287 39.0228Z" fill="white"/>
<path d="M133.377 27.0716H121.39C121.75 33.2478 123.929 35.7748 128.298 35.7851C130.053 35.8287 131.776 35.2887 133.226 34.2411L133.362 34.3852C131.825 38.024 128.614 40.5613 123.876 40.5613C117.552 40.5613 113.29 36.0682 113.305 29.1355C113.305 21.4153 118.573 17.0045 124.333 17.0199C129.772 17.0199 133.386 21.0653 133.377 26.1297V27.0716ZM126.362 26.0731C126.362 19.9793 125.773 17.7662 124.1 17.7662C122.426 17.7662 121.356 19.9227 121.346 25.1313V26.0628L126.362 26.0731Z" fill="white"/>
<path d="M57.6521 12.2081C56.9147 12.2481 56.1866 12.0192 55.5895 11.5596C55.3252 11.315 55.1186 11.0084 54.9861 10.6645C54.8535 10.3205 54.7985 9.9485 54.8257 9.57812C54.8134 9.13106 54.9142 8.68865 55.1176 8.29658C55.304 7.94451 55.5874 7.66086 55.93 7.48339C56.2701 7.29771 56.6315 7.15931 57.0051 7.07164C57.4069 6.98502 57.8161 6.94191 58.2262 6.94297C58.9772 6.93025 59.7265 7.02371 60.4542 7.22089V5.6151C60.4817 5.34396 60.4475 5.0698 60.3544 4.81551C60.2613 4.56122 60.112 4.3342 59.9191 4.15341C59.472 3.84093 58.9409 3.69098 58.4062 3.72623C57.4793 3.68515 56.5704 4.00568 55.8522 4.62692H55.3657V3.7777C56.3269 3.25728 57.3946 2.99565 58.4742 3.01597C59.2327 2.96504 59.9875 3.16467 60.6342 3.58727C60.9008 3.82035 61.109 4.11929 61.2405 4.45769C61.372 4.79609 61.4228 5.16355 61.3882 5.52761V10.7619C61.3882 11.2766 61.612 11.5236 62.0596 11.5236H62.2055C62.3003 11.5268 62.3947 11.5093 62.4828 11.4721V12.0434L62.2055 12.1464C62.0557 12.1838 61.9021 12.2011 61.7482 12.1978C60.8726 12.1978 60.4396 11.7964 60.4396 10.9883V10.7979C60.1129 11.2489 59.6901 11.6117 59.2057 11.8568C58.7213 12.1018 58.1889 12.2222 57.6521 12.2081ZM57.7835 11.5133C58.3067 11.5074 58.8212 11.371 59.2852 11.1153C59.7493 10.8595 60.1498 10.4916 60.4542 10.0413V7.8591C59.7799 7.68042 59.0867 7.59393 58.3915 7.60176C56.624 7.60176 55.7402 8.26055 55.7402 9.57812C55.7402 10.8957 56.4164 11.5408 57.7688 11.5133H57.7835Z" fill="white"/>
<path d="M68.3542 12.1879C67.7902 12.2289 67.2244 12.1407 66.6955 11.9293C66.1666 11.7179 65.687 11.3883 65.2894 10.9629C64.5447 10.0204 64.1673 8.81312 64.2338 7.58665C64.2047 6.97663 64.2908 6.36659 64.4871 5.79219C64.6834 5.21778 64.9859 4.69052 65.377 4.24124C65.7811 3.81978 66.2634 3.4915 66.7934 3.27713C67.3234 3.06275 67.8896 2.96694 68.4564 2.99572C69.4007 2.97063 70.3402 3.14563 71.2196 3.5104V5.17281H70.5677C70.5677 4.98752 70.5287 4.85371 70.519 4.76621C70.5093 4.67872 70.4801 4.57063 70.4461 4.43682C70.4146 4.31809 70.3522 4.21109 70.2661 4.12801C70.1704 4.04257 70.0619 3.97472 69.945 3.92728C69.4651 3.72947 68.9515 3.64006 68.437 3.6648C67.9794 3.63088 67.5207 3.71153 67.0981 3.90021C66.6755 4.08889 66.3009 4.38029 66.0046 4.75077C65.4332 5.57278 65.1463 6.57771 65.1922 7.59694C65.1429 8.61602 65.4131 9.62377 65.9608 10.4637C66.2551 10.8354 66.6301 11.1264 67.0536 11.3118C67.477 11.4973 67.9366 11.5719 68.3931 11.5291C69.5801 11.5291 70.4072 11.1482 70.8645 10.3865H71.3898V11.1122C70.5496 11.8764 69.4601 12.2625 68.3542 12.1879Z" fill="white"/>
<path d="M76.1821 12.2081C75.4445 12.249 74.7162 12.02 74.1194 11.5596C73.8543 11.3155 73.6468 11.0092 73.5133 10.6652C73.3799 10.3211 73.3243 9.94891 73.3508 9.57812C73.3385 9.13106 73.4393 8.68865 73.6427 8.29658C73.8303 7.94551 74.1134 7.66219 74.4551 7.48338C74.7972 7.29848 75.1601 7.16014 75.5351 7.07164C75.9369 6.98474 76.346 6.94162 76.7561 6.94297C77.5056 6.9299 78.2533 7.02338 78.9793 7.22089V5.6151C79.0078 5.34435 78.9746 5.07033 78.8823 4.816C78.79 4.56166 78.6414 4.33445 78.449 4.15341C78.0017 3.84162 77.4708 3.69173 76.9361 3.72623C76.009 3.68321 75.0995 4.00396 74.3821 4.62692H73.8957V3.7777C74.8573 3.25848 75.9247 2.99692 77.0042 3.01597C77.7628 2.96504 78.5175 3.16467 79.1641 3.58726C79.4314 3.81976 79.6401 4.11861 79.7717 4.45717C79.9033 4.79573 79.9536 5.16347 79.9182 5.5276V10.7619C79.9182 11.2766 80.142 11.5236 80.5895 11.5236H80.7403C80.8351 11.5268 80.9295 11.5093 81.0176 11.4721V12.0434L80.7403 12.1464C80.581 12.1859 80.4174 12.2032 80.2538 12.1978C79.383 12.1978 78.9452 11.7964 78.9452 10.9883V10.7979C78.6211 11.2453 78.2021 11.6059 77.7222 11.8509C77.2423 12.0958 76.7148 12.2182 76.1821 12.2081ZM76.3134 11.5133C76.836 11.5078 77.35 11.3716 77.8133 11.1158C78.2767 10.8599 78.6762 10.4918 78.9793 10.0413V7.8591C78.305 7.68014 77.6118 7.59365 76.9166 7.60176C75.1524 7.60176 74.2686 8.26054 74.2654 9.57812C74.2621 10.8957 74.9448 11.5408 76.3134 11.5133Z" fill="white"/>
<path d="M86.4614 12.1876C85.2258 12.1876 84.3209 11.7758 83.742 10.9421C83.1554 9.94235 82.8551 8.7842 82.8776 7.60772C82.9 6.43125 83.2442 5.28687 83.8685 4.31301C84.2111 3.86887 84.6489 3.51764 85.1456 3.28848C85.6422 3.05932 86.1834 2.95886 86.7241 2.99543C87.266 2.96744 87.8069 3.0701 88.3058 3.29568C88.8047 3.52126 89.2486 3.86385 89.6041 4.29757V0.643348H88.1446V0H90.3045C90.4554 0 90.5332 0.108083 90.5332 0.313954V10.9781C90.5338 11.0431 90.5471 11.1073 90.5722 11.1666C90.5974 11.2259 90.6337 11.2791 90.6791 11.3229C90.7179 11.3757 90.7672 11.4188 90.8236 11.4491C90.8799 11.4793 90.9419 11.496 91.0051 11.4979H91.7445V12.1207H89.8278C89.677 12.1207 89.5943 11.9302 89.5846 11.5494V10.4428C89.2455 10.9889 88.7813 11.4353 88.2352 11.7404C87.6891 12.0454 87.0789 12.1993 86.4614 12.1876ZM86.5733 11.5134C87.178 11.5035 87.771 11.3357 88.2997 11.0251C88.8285 10.7144 89.2765 10.2704 89.6041 9.73257V4.98724C89.2475 4.59185 88.8254 4.26912 88.3587 4.03508C87.8855 3.83624 87.379 3.74166 86.8701 3.75715C86.4288 3.71711 85.9852 3.79731 85.5815 3.99012C85.1778 4.18293 84.8276 4.48191 84.5641 4.85857C84.0542 5.6937 83.801 6.67531 83.8393 7.66871C83.8294 8.46222 83.97 9.24977 84.2528 9.98477C84.3672 10.3077 84.5504 10.5984 84.7884 10.8341C85.0263 11.0698 85.3125 11.2441 85.6247 11.3435C85.9291 11.4582 86.2501 11.5157 86.5733 11.5134Z" fill="white"/>
<path d="M97.689 12.1876C97.1213 12.227 96.552 12.1407 96.0176 11.9342C95.4832 11.7277 94.9954 11.4056 94.5853 10.9884C93.8167 10.0685 93.4248 8.86333 93.4956 7.63783C93.4507 6.4253 93.83 5.23784 94.5609 4.30271C94.9232 3.8666 95.3738 3.52256 95.8792 3.29622C96.3846 3.06988 96.9317 2.96707 97.4798 2.99543C99.9219 2.99543 101.143 4.49143 101.143 7.48343C101.139 7.5348 101.139 7.58646 101.143 7.63783H94.4831C94.5123 10.2318 95.6085 11.5305 97.7717 11.5339C98.9814 11.5339 99.8538 11.1805 100.389 10.4737H100.948V11.1891C100.001 11.9048 98.8512 12.257 97.689 12.1876ZM94.4928 6.9636H100.189C100.134 4.75734 99.2295 3.65422 97.4749 3.65422C97.0811 3.63071 96.6873 3.70026 96.3222 3.85783C95.957 4.0154 95.6296 4.25704 95.3636 4.5652C94.8341 5.24293 94.5283 6.08511 94.4928 6.9636ZM96.9252 2.20283L98.0879 0H99.0608V0.432332L97.6014 2.20283H96.9252Z" fill="white"/>
<path d="M110.6 5.28009V11.4974H111.908V12.1202H108.342V11.4974H109.651V5.54258C109.66 5.24371 109.625 4.94518 109.549 4.65733C109.448 4.38075 109.264 4.14731 109.024 3.99362C108.785 3.83993 108.504 3.77468 108.226 3.80811C107.297 3.80811 106.28 4.32279 105.166 5.28009V11.4974H106.625V12.1202H103.006V11.4974H103.726C103.851 11.4928 103.969 11.4375 104.057 11.343C104.102 11.2982 104.139 11.2441 104.164 11.1839C104.189 11.1237 104.202 11.0588 104.203 10.993V4.26103C104.195 4.12509 104.144 3.99603 104.057 3.89561C103.969 3.80109 103.851 3.7458 103.726 3.7412H102.923V3.08241H104.869C104.912 3.07963 104.954 3.08918 104.992 3.11005C105.029 3.13091 105.061 3.16229 105.083 3.20079C105.131 3.35209 105.159 3.50972 105.166 3.66915V4.69851C106.343 3.57651 107.451 3.0155 108.488 3.0155C109.708 3.0155 110.4 3.58165 110.566 4.71394C111.06 4.22672 111.609 3.80502 112.2 3.45813C112.731 3.16249 113.323 3.01043 113.922 3.0155C114.185 3.01792 114.448 3.04723 114.706 3.103C115.591 3.35519 116.034 4.08089 116.034 5.2698V11.0136C116.034 11.0794 116.047 11.1443 116.073 11.2045C116.098 11.2647 116.134 11.3188 116.18 11.3636C116.221 11.4116 116.271 11.4501 116.327 11.4767C116.383 11.5032 116.444 11.5173 116.506 11.518H117.143V12.1408H113.596V11.518H115.056V5.54258C115.065 5.24371 115.03 4.94518 114.954 4.65733C114.85 4.37858 114.662 4.144 114.419 3.99034C114.176 3.83667 113.892 3.77258 113.611 3.80811C112.803 3.80811 111.787 4.30221 110.6 5.28009Z" fill="white"/>
<path d="M118.866 12.1205V11.4978H119.663C119.788 11.4932 119.907 11.4379 119.994 11.3434C120.04 11.2986 120.076 11.2444 120.101 11.1843C120.126 11.1241 120.139 11.0591 120.14 10.9934V4.26138C120.132 4.12544 120.081 3.99638 119.994 3.89596C119.907 3.80144 119.788 3.74615 119.663 3.74155H118.783V3.08277H120.845C120.883 3.08049 120.921 3.08879 120.955 3.10685C120.989 3.1249 121.019 3.15209 121.04 3.1857C121.079 3.32586 121.095 3.47205 121.088 3.61803V10.9934C121.088 11.1299 121.14 11.2608 121.231 11.3573C121.322 11.4538 121.446 11.5081 121.575 11.5081H122.392V12.1308L118.866 12.1205ZM120.957 1.61079C120.833 1.73306 120.669 1.80104 120.5 1.80104C120.33 1.80104 120.167 1.73306 120.043 1.61079C119.983 1.54746 119.936 1.47185 119.905 1.38863C119.874 1.30542 119.86 1.21637 119.863 1.12699C119.863 0.94817 119.93 0.776678 120.049 0.650236C120.169 0.523793 120.331 0.452759 120.5 0.452759C120.669 0.452759 120.831 0.523793 120.95 0.650236C121.07 0.776678 121.137 0.94817 121.137 1.12699C121.14 1.21637 121.125 1.30542 121.094 1.38863C121.063 1.47185 121.017 1.54746 120.957 1.61079Z" fill="white"/>
<path d="M128.385 12.1876C127.818 12.2266 127.25 12.1401 126.716 11.9336C126.182 11.7272 125.695 11.4052 125.286 10.9884C124.518 10.0685 124.126 8.86336 124.196 7.63785C124.152 6.42532 124.531 5.23787 125.262 4.30273C125.624 3.86662 126.075 3.52258 126.58 3.29624C127.085 3.0699 127.632 2.96709 128.181 2.99545C130.623 2.99545 131.844 4.49145 131.844 7.48345C131.839 7.53482 131.839 7.58648 131.844 7.63785H125.184C125.213 10.2318 126.309 11.5305 128.472 11.534C129.685 11.534 130.558 11.1806 131.09 10.4737H131.649V11.1891C130.7 11.9048 129.549 12.257 128.385 12.1876ZM125.194 6.96362H130.89C130.838 4.75737 129.934 3.65424 128.176 3.65424C127.782 3.63073 127.388 3.70028 127.023 3.85785C126.658 4.01543 126.33 4.25707 126.064 4.56522C125.535 5.24296 125.229 6.08513 125.194 6.96362Z" fill="white"/>
</svg>
